<?xml version="1.0" encoding="iso-8859-1"?>
<!-- Generator: Adobe Illustrator 18.1.1, SVG Export Plug-In . SVG Version: 6.00 Build 0)  -->
<svg version="1.1" id="Capa_1" xmlns="http://www.w3.org/2000/svg" xmlns:xlink="http://www.w3.org/1999/xlink" x="0px" y="0px"
	 viewBox="0 0 26 26" style="enable-background:new 0 0 26 26;" xml:space="preserve">
<g>
	<g>
		<g>
			<path style="fill:#030104;" d="M22.101,5.999c1.048,0,1.899,0.853,1.899,1.9V18.1c0,1.048-0.852,1.9-1.899,1.9H3.899
				c-1.048,0-1.9-0.853-1.9-1.9V7.899c0-1.048,0.852-1.9,1.9-1.9H22.101 M22.101,4H3.899C1.748,4,0,5.747,0,7.899V18.1
				C0,20.253,1.748,22,3.899,22H22.1c2.152,0,3.9-1.747,3.9-3.899V7.899C26,5.747,24.252,4,22.101,4L22.101,4z"/>
		</g>
	</g>
	<path style="fill:#030104;" d="M12.143,10.233l-1.393,3.099l-1.387-3.099H7.585v4.449l-1.98-4.449h-1.5l-2.022,4.62h1.196
		l0.443-1.032h2.265l0.448,1.032H8.72v-3.431l1.515,3.431h1.032l1.552-3.372v3.372h1.134v-4.62H12.143z M4.15,12.823l0.677-1.615
		l0.704,1.615H4.15z"/>
	<path style="fill:#030104;" d="M21.877,12.492l2.031-2.249h-1.443l-1.3,1.434l-1.257-1.443h-4.471v4.62h4.325l1.362-1.527
		l1.329,1.537h1.438L21.877,12.492z M19.17,13.884h-2.615v-0.913h2.502v-0.878h-2.502v-0.865l2.76,0.007l1.104,1.258L19.17,13.884z"
		/>
</g>
<g>
</g>
<g>
</g>
<g>
</g>
<g>
</g>
<g>
</g>
<g>
</g>
<g>
</g>
<g>
</g>
<g>
</g>
<g>
</g>
<g>
</g>
<g>
</g>
<g>
</g>
<g>
</g>
<g>
</g>
</svg>
