<?xml version="1.0" encoding="utf-8"?>
<!-- Generator: Adobe Illustrator 22.1.0, SVG Export Plug-In . SVG Version: 6.00 Build 0)  -->
<svg version="1.1" id="Layer_1" xmlns="http://www.w3.org/2000/svg" xmlns:xlink="http://www.w3.org/1999/xlink" x="0px" y="0px"
	 viewBox="0 0 512 512" style="enable-background:new 0 0 512 512;" xml:space="preserve">
<g>
	<title>cc-jcb</title>
	<g>
		<path d="M368.1,271.9v-25.2c32.2,0,30.1,0.2,30.1,0.2c5.7,1,10.4,5.7,10.4,12.5c0,6.9-4.7,11.3-10.4,12.3
			C397.2,271.9,395.6,271.9,368.1,271.9L368.1,271.9z M401.5,287.6c-2.2-0.5-2.6-0.4-33.4-0.4v27.3c30.9,0,31.2,0.2,33.4-0.4
			c5.9-1.2,10.5-6.2,10.5-13.3C412.1,294.1,407.4,288.8,401.5,287.6z M481,143.5v275c0,20.7-16.8,37.5-37.5,37.5h-375
			C47.8,456,31,439.2,31,418.5v-275c0-20.7,16.8-37.5,37.5-37.5h375C464.2,106,481,122.8,481,143.5z M173.2,231.2h-44.5
			c0,52.4,8.4,85.7-28,85.7c-15.2,0-30.3-4.5-44.7-11.6v21.9c23.4,6.5,53.1,6.5,53.1,6.5C185.6,333.7,173.2,296.5,173.2,231.2z
			 M312.6,234.7c-49.5-12.5-128.9-11.6-128.9,46.3c0,60.2,84.5,57.5,128.9,46.3v-22.1c-37.2,19.3-84,17.2-84-24.2s46.7-43.4,84-24.4
			V234.7z M456,304.8c0-14.5-12.9-23.8-29.7-25v-0.6c15.2-2.1,23.7-12.1,23.7-23.6c0-14.8-12.3-23.4-28.9-24.2c0,0,4.9-0.2-94-0.2
			v99.6H423C441.9,330.8,456,320.7,456,304.8z"/>
	</g>
</g>
</svg>
